<svg version="1.1" id="Layer_1" xmlns="http://www.w3.org/2000/svg" xmlns:xlink="http://www.w3.org/1999/xlink" x="0px" y="0px"
	 width="100%" viewBox="0 0 1024 1024" enable-background="new 0 0 1024 1024" xml:space="preserve">
<path fill="#000000" opacity="1.000000" stroke="none" 
	d="
M731.514404,615.538818 
	C736.568115,622.523865 741.411560,629.219543 746.218689,635.865112 
	C744.284790,638.010071 742.336975,637.308655 740.631592,637.311951 
	C713.132202,637.364624 685.632324,637.287903 658.133667,637.441528 
	C654.392395,637.462402 652.077209,636.288574 649.843750,633.272705 
	C600.365662,566.460632 550.792908,499.718750 501.211975,432.982880 
	C493.362885,422.418091 485.379547,411.953094 477.483337,401.423187 
	C476.620911,400.273102 475.316620,399.288940 475.591858,397.436951 
	C477.513763,396.105377 479.727661,396.712189 481.797211,396.709076 
	C510.463257,396.665924 539.129578,396.742554 567.795471,396.661041 
	C598.025269,396.575073 627.298340,373.591217 634.634705,344.337280 
	C642.792725,311.806885 626.835571,278.818054 596.058105,264.403473 
	C586.088440,259.734161 575.570801,257.406219 564.660706,257.388855 
	C496.328827,257.280121 427.996674,257.318878 359.664642,257.321869 
	C353.524963,257.322113 353.358765,257.514648 353.355682,263.921661 
	C353.343170,289.754517 353.269928,315.587769 353.419220,341.419769 
	C353.443848,345.681000 352.275391,348.966217 349.559570,352.274597 
	C333.810059,371.460480 318.346771,390.881439 302.582794,410.055267 
	C299.658356,413.612213 299.831146,416.054169 302.692719,419.489655 
	C318.368561,438.309143 333.792999,457.337952 349.442322,476.179779 
	C352.139130,479.426697 353.444763,482.663116 353.432098,486.984467 
	C353.291992,534.816528 353.346985,582.649048 353.340454,630.481506 
	C353.339508,637.334900 353.318085,637.348450 346.534912,637.351624 
	C323.868683,637.362122 301.201569,637.260071 278.536926,637.452393 
	C274.037109,637.490479 272.557556,636.236084 272.561096,631.567261 
	C272.675232,481.236786 272.673431,330.906219 272.578400,180.575729 
	C272.575592,176.114395 273.726166,174.558655 278.418091,174.564590 
	C376.416077,174.688812 474.441620,173.275543 572.401489,175.213028 
	C626.149414,176.276062 669.032776,201.516220 697.861084,247.994446 
	C711.724792,270.346100 719.091003,294.801025 719.367310,321.267181 
	C720.059326,387.557648 688.364380,433.667389 630.752075,463.633484 
	C624.367920,466.954132 623.835999,468.196289 627.803589,473.628845 
	C662.288757,520.846619 696.800354,568.045166 731.514404,615.538818 
z"/>
<path fill="#000000" opacity="1.000000" stroke="none" 
	d="
M344.739990,405.767181 
	C372.517395,371.641357 400.082184,337.804993 427.578522,303.913055 
	C429.415955,301.648254 431.367554,300.572205 434.341125,300.586029 
	C454.006500,300.677521 473.672516,300.618011 493.338348,300.624664 
	C494.126099,300.624939 494.913757,300.796051 496.121826,300.936371 
	C494.897766,304.871704 491.984406,307.229767 489.766235,309.966919 
	C462.601379,343.487366 435.423950,376.998383 408.036865,410.336945 
	C404.987946,414.048431 404.896515,416.280975 407.958771,419.990479 
	C431.397827,448.383972 454.610413,476.964325 477.903778,505.478149 
	C482.752045,511.413025 487.675598,517.286621 492.495911,523.243958 
	C494.019409,525.126831 495.825653,526.881531 496.630890,529.250244 
	C494.776825,530.874329 492.869293,530.289368 491.136414,530.293457 
	C472.970551,530.335815 454.803467,530.203918 436.639526,530.391235 
	C432.899200,530.429810 430.486633,529.197083 428.187225,526.361450 
	C398.906952,490.252991 369.550690,454.206024 340.149963,418.195496 
	C338.169434,415.769714 337.434631,413.851135 340.036957,411.409454 
	C341.722656,409.827820 343.032867,407.846039 344.739990,405.767181 
z"/>
<path fill="#000000" opacity="1.000000" stroke="none" 
	d="
M165.137787,736.661316 
	C178.283035,736.669006 190.948746,736.538208 203.609970,736.719727 
	C219.896988,736.953247 232.335052,745.890930 236.634247,760.041443 
	C240.724380,773.503906 236.317093,790.961426 223.974792,797.310181 
	C221.036041,798.821899 221.566589,800.720032 222.806747,803.052795 
	C228.200729,813.199097 233.521881,823.384155 238.870010,833.554871 
	C239.626740,834.993958 240.386307,836.431580 241.728455,838.977417 
	C233.466614,839.510864 226.119827,839.549133 218.787277,838.970276 
	C216.810059,838.814270 216.206512,836.541809 215.389450,834.933044 
	C210.712723,825.724731 205.968124,816.548340 201.475266,807.250610 
	C199.973679,804.143005 198.034653,802.909485 194.536728,802.878174 
	C180.345291,802.751099 180.346771,802.643372 180.339355,816.599976 
	C180.336166,822.598572 180.199463,828.601013 180.376740,834.594238 
	C180.476440,837.964294 179.381027,839.514648 175.834732,839.347046 
	C171.844681,839.158569 167.828537,839.129883 163.842590,839.359192 
	C160.004440,839.580017 158.997009,837.806519 159.010559,834.293091 
	C159.079269,816.464417 158.982315,798.635132 158.964386,780.806091 
	C158.951492,767.975769 159.094986,755.143555 158.907791,742.316101 
	C158.845123,738.020813 160.243408,736.014832 165.137787,736.661316 
M197.391388,756.160156 
	C193.058487,756.163025 188.724976,756.210388 184.392899,756.151978 
	C181.822525,756.117371 180.291779,756.889648 180.334290,759.834045 
	C180.430481,766.498779 180.398758,773.166260 180.345734,779.831970 
	C180.326355,782.268250 181.248154,783.620667 183.822205,783.609253 
	C190.320923,783.580444 196.841156,783.904907 203.312653,783.478638 
	C210.034424,783.036011 215.093079,778.085205 216.429520,771.596069 
	C217.432175,766.727661 214.399872,761.072876 209.489594,758.304443 
	C205.982330,756.327087 202.191635,756.204041 197.391388,756.160156 
z"/>
<path fill="#000000" opacity="1.000000" stroke="none" 
	d="
M696.615234,794.999878 
	C696.600586,776.671204 696.598572,758.842407 696.554260,741.013855 
	C696.548584,738.747742 696.299561,736.568787 699.660950,736.674805 
	C714.625305,737.146912 729.633240,735.610413 744.564636,737.584473 
	C765.869568,740.401123 779.559998,753.554626 783.242859,774.725708 
	C785.245178,786.236267 784.741577,797.625793 780.960999,808.719604 
	C774.960266,826.328247 761.974609,835.529724 744.104919,838.227295 
	C729.546387,840.424988 714.836975,838.919922 700.201660,839.341003 
	C696.852539,839.437317 696.523621,837.757874 696.549561,834.989319 
	C696.672668,821.827087 696.610779,808.663208 696.615234,794.999878 
M754.029663,811.535522 
	C761.678101,802.975098 763.425781,792.601990 762.505676,781.731079 
	C761.376709,768.393738 753.157959,759.020691 740.522522,756.770813 
	C735.184387,755.820251 729.571167,756.528381 724.110718,756.115601 
	C719.568054,755.772156 718.031860,757.367249 718.104248,762.007019 
	C718.350647,777.804626 718.158569,793.608643 718.215210,809.409912 
	C718.257385,821.183716 716.670715,819.411377 728.575378,819.721741 
	C737.810608,819.962585 746.506470,818.812805 754.029663,811.535522 
z"/>
<path fill="#000000" opacity="1.000000" stroke="none" 
	d="
M675.271606,814.003784 
	C665.231995,833.563293 648.915161,840.970703 627.976501,840.638855 
	C600.110840,840.197266 582.793396,819.735718 580.479553,795.451599 
	C579.123657,781.221375 580.863892,767.808899 588.865967,755.851624 
	C598.903137,740.853394 613.540100,735.398315 631.306519,735.358887 
	C659.034424,735.297363 680.067932,756.299927 680.385681,785.923767 
	C680.488831,795.539490 679.314026,804.808716 675.271606,814.003784 
M602.322266,792.191528 
	C602.696045,794.651611 602.886169,797.156555 603.474731,799.564148 
	C606.325989,811.228455 615.451111,819.725647 626.031250,820.715881 
	C640.141479,822.036621 649.885681,817.159485 654.856567,805.930969 
	C659.802490,794.758850 660.205322,783.273010 655.532043,771.973938 
	C651.639160,762.561584 644.578064,756.602722 634.164795,755.364075 
	C622.490295,753.975342 613.162354,757.861084 606.973877,768.131348 
	C602.683350,775.251587 601.867188,783.152100 602.322266,792.191528 
z"/>
<path fill="#000000" opacity="1.000000" stroke="none" 
	d="
M337.921753,735.162476 
	C346.938080,735.647766 355.236725,736.992371 362.309570,742.470154 
	C369.862213,748.319519 373.831055,755.955139 374.463837,766.025024 
	C367.888702,766.925110 361.636566,766.491943 355.405151,766.276733 
	C353.573700,766.213501 353.157806,764.440613 352.624390,763.096069 
	C348.326050,752.260986 329.434814,752.408752 323.355194,758.119385 
	C318.656342,762.532959 319.171967,768.257935 324.881195,771.904358 
	C329.480560,774.841919 334.792786,775.657715 340.019440,776.665283 
	C346.570496,777.928162 353.006378,779.569031 359.105469,782.342041 
	C370.687775,787.608154 376.219177,796.953613 376.190094,809.330322 
	C376.160767,821.816772 371.130188,832.242554 358.941803,836.626770 
	C341.100677,843.044312 323.302063,842.956970 307.055023,831.442566 
	C300.458954,826.767883 297.332581,819.792419 295.856354,812.026062 
	C295.321259,809.210754 296.181274,807.526917 299.446533,807.645752 
	C302.774597,807.767029 306.132690,807.888489 309.439117,807.587341 
	C314.370453,807.138000 318.179901,807.818787 319.544006,813.579651 
	C320.119873,816.011719 322.455414,817.554321 324.737366,818.736328 
	C331.777527,822.382812 339.091003,822.834045 346.478607,820.165039 
	C350.932159,818.556030 354.351929,815.657288 354.607208,810.451233 
	C354.872650,805.037720 351.252991,802.364319 346.915802,800.529846 
	C340.754028,797.923645 334.099243,797.039673 327.658447,795.412598 
	C323.291168,794.309387 318.999481,793.009521 314.906281,791.130676 
	C305.118958,786.637878 299.468262,778.996521 298.811462,768.270081 
	C298.132874,757.188171 302.192780,748.097595 311.757477,741.841980 
	C319.593353,736.717102 328.392670,735.392944 337.921753,735.162476 
z"/>
<path fill="#000000" opacity="1.000000" stroke="none" 
	d="
M392.797363,808.000000 
	C392.792725,785.841431 392.902527,764.181702 392.688324,742.525208 
	C392.642944,737.939209 394.042084,736.521729 398.628265,736.573303 
	C417.951965,736.790649 437.281372,736.810852 456.604309,736.562012 
	C461.360901,736.500793 462.464386,738.194275 462.429565,742.609497 
	C462.322144,756.243774 462.478363,756.237183 448.692139,756.201904 
	C438.862518,756.176758 429.030762,756.288147 419.204254,756.106628 
	C415.534149,756.038879 414.064178,757.296265 414.297699,761.024475 
	C414.536774,764.841309 414.597260,768.705627 414.281433,772.511414 
	C413.917633,776.894714 415.909515,777.849609 419.852112,777.776733 
	C430.511139,777.579712 441.178467,777.838684 451.837830,777.651611 
	C455.812714,777.581848 457.403931,778.722900 457.427704,782.987244 
	C457.507629,797.333618 457.658356,797.328491 443.505951,797.331299 
	C435.675568,797.332825 427.834900,797.597168 420.018616,797.270752 
	C415.308533,797.074097 413.861786,798.806519 414.275543,803.303589 
	C414.625122,807.103455 414.588715,810.979675 414.287323,814.787598 
	C413.961884,818.899231 415.729248,819.893799 419.529846,819.838745 
	C432.189178,819.655457 444.856293,819.930969 457.512817,819.667236 
	C462.158356,819.570435 463.476074,821.201477 463.439606,825.713318 
	C463.329651,839.320435 463.496033,839.319580 449.751556,839.317627 
	C432.757874,839.315186 415.762756,839.196716 398.771484,839.397949 
	C394.304260,839.450867 392.503418,838.221497 392.694275,833.487244 
	C393.029480,825.170288 392.793213,816.830322 392.797363,808.000000 
z"/>
<path fill="#000000" opacity="1.000000" stroke="none" 
	d="
M845.999939,756.187256 
	C837.717896,756.187500 829.935791,756.187500 821.814453,756.187500 
	C821.814453,763.582642 821.814453,770.314270 821.814453,777.718018 
	C829.656372,777.718018 837.266296,777.717163 844.876160,777.718323 
	C849.872864,777.719116 854.871277,777.800659 859.865723,777.696228 
	C862.829834,777.634216 864.139465,778.893127 864.087952,781.839905 
	C864.023926,785.502808 863.955017,789.174805 864.138062,792.830261 
	C864.315613,796.375977 862.714478,797.417419 859.362122,797.374146 
	C848.704163,797.236389 838.040344,797.468201 827.385071,797.250977 
	C822.998291,797.161621 820.883667,798.037964 821.666931,803.108887 
	C822.241760,806.830933 821.810669,810.754639 821.475830,814.557495 
	C821.149597,818.262146 822.002075,819.936768 826.247864,819.852234 
	C839.067566,819.596924 851.898926,819.932312 864.719177,819.689941 
	C869.195618,819.605408 870.387878,821.226196 870.377930,825.497986 
	C870.345581,839.320068 870.492065,839.316528 856.825684,839.315552 
	C840.003296,839.314331 823.179626,839.210388 806.359314,839.399902 
	C802.113342,839.447693 800.543274,838.286255 800.569519,833.781433 
	C800.747986,803.135742 800.722046,772.488281 800.607849,741.841980 
	C800.593567,738.016907 801.669495,736.563416 805.680481,736.597229 
	C824.999939,736.760498 844.321960,736.745667 863.641724,736.606995 
	C867.434998,736.579773 868.658020,737.984680 868.399475,741.611084 
	C868.163330,744.924255 868.183838,748.284973 868.447327,751.596375 
	C868.721924,755.048218 867.548645,756.390625 863.986328,756.252319 
	C858.165466,756.026306 852.329468,756.188538 845.999939,756.187256 
z"/>
<path fill="#000000" opacity="1.000000" stroke="none" 
	d="
M481.761322,757.923828 
	C492.409851,740.669739 508.025757,734.568420 527.333130,735.396484 
	C542.547607,736.049011 554.851990,741.334961 562.582397,755.033813 
	C565.284729,759.822632 567.370911,764.872375 567.524414,771.299500 
	C561.016541,771.299500 554.749146,771.316223 548.481873,771.289062 
	C546.655823,771.281189 546.074524,769.960938 545.476135,768.467224 
	C541.922791,759.598511 535.129944,755.542236 525.759399,754.949158 
	C515.738403,754.314880 507.387482,757.476929 502.384430,766.257080 
	C494.429688,780.217407 493.887146,794.787354 501.663269,809.071106 
	C506.431671,817.829956 514.496887,821.051514 524.264771,820.942627 
	C533.946838,820.834717 540.932190,816.449402 544.959717,807.899231 
	C546.632874,804.347290 548.725708,803.434875 552.260925,803.585510 
	C557.379578,803.803589 562.514465,803.641357 568.109741,803.641357 
	C566.550842,816.009644 561.846069,826.014282 551.929321,832.798157 
	C533.003235,845.745056 491.264069,846.208252 478.694641,811.413757 
	C472.212860,793.471191 472.567902,775.533203 481.761322,757.923828 
z"/>
<path fill="#000000" opacity="1.000000" stroke="none" 
	d="
M268.010559,839.311890 
	C256.415009,839.209717 257.686615,840.483459 257.667542,829.422485 
	C257.617828,800.613770 257.769836,771.804016 257.538666,742.997131 
	C257.498016,737.932434 258.941864,735.966553 263.995087,736.634705 
	C268.873199,737.279663 275.137268,734.473877 278.360840,737.948303 
	C281.307312,741.124023 279.274048,747.197510 279.288635,751.984497 
	C279.368835,778.295105 279.329529,804.606140 279.322662,830.916992 
	C279.320465,839.314880 279.308472,839.314941 270.999908,839.314026 
	C270.167267,839.313965 269.334656,839.312683 268.010559,839.311890 
z"/>
</svg>